<svg xmlns="http://www.w3.org/2000/svg" width="300" height="300" viewBox="0 0 300 300">
  <defs>
    <linearGradient id="bg4" x1="0%" y1="0%" x2="100%" y2="100%">
      <stop offset="0%" stop-color="#1a1a2e"/>
      <stop offset="100%" stop-color="#16213e"/>
    </linearGradient>
  </defs>
  <rect width="300" height="300" fill="url(#bg4)"/>
  <circle cx="100" cy="100" r="3" fill="rgba(255,214,10,0.3)"/>
  <circle cx="200" cy="80" r="2" fill="rgba(255,214,10,0.2)"/>
  <circle cx="250" cy="120" r="2.5" fill="rgba(255,214,10,0.25)"/>
  <circle cx="70" cy="150" r="2" fill="rgba(255,214,10,0.15)"/>
  <circle cx="230" cy="160" r="3" fill="rgba(255,214,10,0.2)"/>
  <path d="M110 130 Q115 100 120 130 L122 130 Q124 115 126 130 L128 130 Q131 90 134 130" stroke="rgba(255,214,10,0.3)" stroke-width="2" fill="none"/>
  <path d="M160 120 Q165 85 170 120 L172 120 Q174 105 176 120 L178 120 Q181 80 184 120" stroke="rgba(255,214,10,0.25)" stroke-width="2" fill="none"/>
  <line x1="60" y1="195" x2="240" y2="195" stroke="rgba(255,214,10,0.15)" stroke-width="1"/>
  <text x="150" y="230" font-family="Arial, Helvetica, sans-serif" font-size="28" font-weight="bold" fill="#ffd60a" text-anchor="middle">Midnight Jazz</text>
  <text x="150" y="260" font-family="Arial, Helvetica, sans-serif" font-size="14" fill="rgba(255,214,10,0.5)" text-anchor="middle">Album</text>
</svg>
