<svg xmlns="http://www.w3.org/2000/svg" width="300" height="300" viewBox="0 0 300 300">
  <defs>
    <linearGradient id="bg2" x1="0%" y1="0%" x2="100%" y2="100%">
      <stop offset="0%" stop-color="#0077b6"/>
      <stop offset="100%" stop-color="#00b4d8"/>
    </linearGradient>
  </defs>
  <rect width="300" height="300" fill="url(#bg2)"/>
  <path d="M0 130 Q75 100 150 130 T300 130 L300 160 Q225 190 150 160 T0 160 Z" fill="rgba(255,255,255,0.12)"/>
  <path d="M0 110 Q75 80 150 110 T300 110 L300 140 Q225 170 150 140 T0 140 Z" fill="rgba(255,255,255,0.08)"/>
  <path d="M0 150 Q75 120 150 150 T300 150 L300 180 Q225 210 150 180 T0 180 Z" fill="rgba(255,255,255,0.06)"/>
  <line x1="60" y1="195" x2="240" y2="195" stroke="rgba(255,255,255,0.15)" stroke-width="1"/>
  <text x="150" y="230" font-family="Arial, Helvetica, sans-serif" font-size="28" font-weight="bold" fill="#ffffff" text-anchor="middle">Ocean Waves</text>
  <text x="150" y="260" font-family="Arial, Helvetica, sans-serif" font-size="14" fill="rgba(255,255,255,0.7)" text-anchor="middle">Album</text>
</svg>
